<?xml version="1.0" encoding="UTF-8" standalone="no"?><!DOCTYPE svg PUBLIC "-//W3C//DTD SVG 1.1//EN" "http://www.w3.org/Graphics/SVG/1.1/DTD/svg11.dtd"><svg width="100%" height="100%" viewBox="0 0 3049 918" version="1.1" xmlns="http://www.w3.org/2000/svg" xmlns:xlink="http://www.w3.org/1999/xlink" xml:space="preserve" style="fill-rule:evenodd;clip-rule:evenodd;stroke-linecap:round;stroke-linejoin:round;stroke-miterlimit:1.5;"><rect id="Artboard1" x="0" y="0" width="3048.81" height="917.971" style="fill:none;"/><path d="M190.104,714.536c0.9,-9.269 0.428,-25.648 17.348,-39.169c10.039,-8.023 180.721,-132.301 180.721,-132.301c0,0 20.109,-16.444 46.277,4.027c4.533,3.546 164.738,125.154 166.75,126.503c14.464,9.691 23.788,20.844 54.02,7.297c6.285,-2.817 463.937,-177.285 463.937,-177.285c0,0 13.143,-8.275 43.485,0c7.359,2.007 503.403,161.898 503.403,161.898c0,0 22.863,11.128 48.168,-21.408c4.683,-6.021 171.264,-202.707 171.264,-202.707c0,0 31.308,-47.657 68.262,-3.345c0.606,0.727 191.334,210.735 191.334,210.735c0,0 38.133,27.429 49.506,-7.359c2.296,-7.024 39.907,-207.375 40.373,-209.877c3.323,-17.83 37.88,-30.007 47.934,1.818c13.399,42.411 34.267,147.191 34.267,147.191c0,0 5.204,16.714 4.535,53.509c-0.669,36.795 -3.324,79.197 18.367,97.51c19.248,16.25 48.503,24.036 67.774,15.943c14.039,-5.896 32.173,-23.311 31.363,-43.967c-0.804,-20.495 -10.768,-33.033 -29.732,-35.62c-8.559,-1.168 -29.342,3.439 -35.015,13.172c-10.75,18.44 12.645,1.682 18.666,1.013c6.021,-0.669 22.86,0.299 23.185,16.387c0.325,16.087 -9.618,23.906 -24.523,23.87c-14.904,-0.037 -27.517,-6.205 -35.164,-15.358c-3.561,-4.262 -4.463,-15.399 -4.628,-23.006c-0.249,-11.508 1.824,-19.833 8.899,-31.381c7.074,-11.548 25.561,-28.448 28.74,-31.251c3.179,-2.804 204.191,-214.771 204.191,-214.771c0,0 33.45,-47.499 83.625,3.345c50.174,50.843 153.014,156.46 177.953,177.284c21.878,18.268 30.29,17.615 28.692,70.914c-0.662,22.067 10.704,77.604 27.429,102.357c16.725,24.752 23.856,37.463 42.147,44.822c0.621,0.25 1.338,-189.995 1.338,-189.995c0,0 5.352,-28.098 -38.802,-72.252c-44.154,-44.154 -246.116,-241.267 -248.867,-243.515c-12.945,-10.575 -33.334,-39.278 -79.611,11.145c-52.598,57.31 -151.194,162.125 -151.194,162.125c0,0 -53.519,71.583 -76.265,-20.739c-22.746,-92.321 -73.568,-339.683 -73.811,-342.527c-2.014,-23.603 -53.482,-49.829 -66.231,8.028c-0.321,1.461 -68.906,347.21 -68.906,347.21c0,0 -16.996,70.245 -67.569,7.359l-144.504,-152.531c0,0 -26.048,-29.437 -51.513,4.014c-0.405,0.532 -197.488,239.179 -197.488,239.179c0,0 -16.486,27.03 -68.907,13.033c-60.989,-16.284 -450.914,-143.072 -450.914,-143.072c0,0 -32.358,-14.84 -57.735,-1.431c-31.233,16.502 -439.324,173.949 -442.712,175.277c-10.868,4.26 -27.54,14.575 -57.534,-9.366c-35.616,-28.428 -175.879,-137.814 -175.879,-137.814c0,0 -22.345,-21.007 -48.836,2.007c-32.656,28.37 -219.371,164.256 -226.456,170.929c-23.821,22.435 -22.412,6.074 -21.743,104.892c0.669,98.818 0,124.909 0,124.909c0,0 19.401,-18.063 34.788,-55.527c15.387,-37.464 14.922,-83.111 15.798,-92.128Z" style="stroke:#000;stroke-width:1px;"/><text x="148.193px" y="292.378px" style="font-family:'Lato-Regular', 'Lato', sans-serif;font-size:223.347px;">TRA<tspan x="560.491px 712.367px " y="292.378px 292.378px ">VE</tspan>L GLASGOW</text></svg>