<?xml version="1.0" encoding="UTF-8" standalone="no"?>
<!DOCTYPE svg PUBLIC "-//W3C//DTD SVG 1.1//EN" "http://www.w3.org/Graphics/SVG/1.1/DTD/svg11.dtd">
<svg width="100%" height="100%" viewBox="0 0 3049 918" version="1.1" xmlns="http://www.w3.org/2000/svg" xmlns:xlink="http://www.w3.org/1999/xlink" xml:space="preserve" style="fill-rule:evenodd;clip-rule:evenodd;stroke-linecap:round;stroke-linejoin:round;stroke-miterlimit:1.5;">
    <g id="Artboard1" transform="matrix(0.762202,0,0,0.229493,0,0)">
        <rect x="0" y="0" width="4000" height="4000" style="fill:none;"/>
        <g transform="matrix(1.31199,0,0,4.35743,-463.214,-5502.21)">
            <path d="M543.166,1977.25C544.067,1967.99 543.594,1951.61 560.515,1938.09C570.554,1930.06 741.235,1805.78 741.235,1805.78C741.235,1805.78 761.345,1789.34 787.513,1809.81C792.046,1813.36 952.25,1934.97 954.262,1936.31C968.726,1946.01 978.051,1957.16 1008.28,1943.61C1014.57,1940.79 1472.22,1766.33 1472.22,1766.33C1472.22,1766.33 1485.36,1758.05 1515.7,1766.33C1523.06,1768.33 2019.11,1928.22 2019.11,1928.22C2019.11,1928.22 2041.97,1939.35 2067.28,1906.82C2071.96,1900.8 2238.54,1704.11 2238.54,1704.11C2238.54,1704.11 2269.85,1656.45 2306.8,1700.76C2307.41,1701.49 2498.14,1911.5 2498.14,1911.5C2498.14,1911.5 2536.27,1938.93 2547.64,1904.14C2549.94,1897.12 2587.55,1696.77 2588.01,1694.26C2591.34,1676.43 2625.89,1664.26 2635.95,1696.08C2649.35,1738.49 2670.22,1843.27 2670.22,1843.27C2670.22,1843.27 2675.42,1859.99 2674.75,1896.78C2674.08,1933.58 2671.43,1975.98 2693.12,1994.29C2712.37,2010.54 2741.62,2018.33 2760.89,2010.23C2774.93,2004.34 2793.07,1986.92 2792.26,1966.27C2791.45,1945.77 2781.49,1933.23 2762.52,1930.65C2753.96,1929.48 2733.18,1934.09 2727.51,1943.82C2716.76,1962.26 2740.15,1945.5 2746.17,1944.83C2752.2,1944.16 2769.03,1945.13 2769.36,1961.22C2769.68,1977.31 2759.74,1985.13 2744.84,1985.09C2729.93,1985.05 2717.32,1978.88 2709.67,1969.73C2706.11,1965.47 2705.21,1954.33 2705.04,1946.73C2704.8,1935.22 2706.87,1926.89 2713.94,1915.34C2721.02,1903.8 2739.5,1886.9 2742.68,1884.09C2745.86,1881.29 2946.87,1669.32 2946.87,1669.32C2946.87,1669.32 2980.32,1621.82 3030.5,1672.67C3080.67,1723.51 3183.51,1829.13 3208.45,1849.95C3230.33,1868.22 3238.74,1867.57 3237.14,1920.87C3236.48,1942.93 3247.85,1998.47 3264.57,2023.22C3281.3,2047.97 3288.43,2060.68 3306.72,2068.04C3307.34,2068.29 3308.06,1878.05 3308.06,1878.05C3308.06,1878.05 3313.41,1849.95 3269.26,1805.8C3225.1,1761.64 3023.14,1564.53 3020.39,1562.28C3007.44,1551.71 2987.05,1523 2940.78,1573.43C2888.18,1630.74 2789.58,1735.55 2789.58,1735.55C2789.58,1735.55 2736.06,1807.13 2713.32,1714.81C2690.57,1622.49 2639.75,1375.13 2639.51,1372.29C2637.49,1348.68 2586.03,1322.46 2573.28,1380.31C2572.95,1381.78 2504.37,1727.52 2504.37,1727.52C2504.37,1727.52 2487.37,1797.77 2436.8,1734.88L2292.3,1582.35C2292.3,1582.35 2266.25,1552.91 2240.78,1586.37C2240.38,1586.9 2043.3,1825.55 2043.3,1825.55C2043.3,1825.55 2026.81,1852.58 1974.39,1838.58C1913.4,1822.29 1523.48,1695.51 1523.48,1695.51C1523.48,1695.51 1491.12,1680.67 1465.74,1694.07C1434.51,1710.58 1026.42,1868.02 1023.03,1869.35C1012.16,1873.61 995.489,1883.93 965.494,1859.99C929.878,1831.56 789.616,1722.17 789.616,1722.17C789.616,1722.17 767.27,1701.16 740.779,1724.18C708.123,1752.55 521.409,1888.43 514.323,1895.11C490.503,1917.54 491.912,1901.18 492.581,2000C493.25,2098.82 492.581,2124.91 492.581,2124.91C492.581,2124.91 511.982,2106.85 527.369,2069.38C542.756,2031.92 542.29,1986.27 543.166,1977.25Z" style="stroke:black;stroke-width:1px;"/>
        </g>
        <g transform="matrix(1.31199,0,0,4.35743,91.081,-229.902)">
            <text x="139.235px" y="382.512px" style="font-family:'BaskOldFace', 'Baskerville Old Face', serif;font-size:250px;">Travel Glasgow</text>
        </g>
    </g>
</svg>
